# xmcd
#
# Track frame offsets: 
#        150
#        16875
#        36407
#        46632
#        65232
#        87370
#        106085
#        119552
#        136937
#        151462
#        169692
#        187477
#        210312
#        227550
#
# Disc length: 3297 seconds
#
# Revision: 2
# Processed by: cddbd v1.5.1PL0 Copyright (c) Steve Scherf et al.
# Submitted via: ExactAudioCopy v0.95a5
#
DISCID=bd0cdf0e
DTITLE=Pure Prairie League - Mementos 1971-1987
DYEAR=1987
DGENRE=Country Rock
TTITLE0=Country Song
TTITLE1=Early Morning Riser
TTITLE2=Falling In And Out Of Love
TTITLE3=Amie
TTITLE4=Boulder Skies
TTITLE5=Two Lane Highway
TTITLE6=Pickin' To Beat The Devil
TTITLE7=Sun Shone Lightly
TTITLE8=Let Me Love You Tonight
TTITLE9=I'm Almost Ready
TTITLE10=I'm Hot, You're Not
TTITLE11=Does This Only Happen When You Fall In Love
TTITLE12=Never Thought Love Would Find Me
TTITLE13=Love Is An Illusion
EXTD=
EXTT0=
EXTT1=
EXTT2=
EXTT3=
EXTT4=
EXTT5=
EXTT6=
EXTT7=
EXTT8=
EXTT9=
EXTT10=
EXTT11=
EXTT12=
EXTT13=
PLAYORDER=
